<svg id="Layer_1" data-name="Layer 1" xmlns="http://www.w3.org/2000/svg" xmlns:xlink="http://www.w3.org/1999/xlink" width="416.76" height="396.6" viewBox="0 0 416.76 396.6"><defs><style>.cls-1,.cls-14,.cls-15,.cls-16,.cls-17,.cls-20,.cls-21,.cls-22,.cls-23,.cls-24,.cls-26,.cls-27,.cls-31,.cls-8{fill:none;}.cls-2{fill:#fcdbdb;}.cls-3{fill:#f26d6d;}.cls-4,.cls-7{fill:#fff;}.cls-5{clip-path:url(#clip-path);}.cls-6{clip-path:url(#clip-path-2);}.cls-7{stroke:#f7f7f7;}.cls-14,.cls-16,.cls-17,.cls-20,.cls-21,.cls-24,.cls-26,.cls-27,.cls-31,.cls-7,.cls-8{stroke-miterlimit:10;}.cls-14,.cls-15,.cls-17,.cls-27,.cls-31,.cls-7,.cls-8{stroke-width:1.26px;}.cls-14,.cls-8{stroke:#fff;}.cls-15,.cls-16,.cls-17,.cls-20,.cls-21,.cls-22,.cls-24,.cls-26,.cls-27,.cls-31,.cls-8{stroke-linecap:round;}.cls-9{clip-path:url(#clip-path-4);}.cls-10{fill:#ed1c24;}.cls-11{clip-path:url(#clip-path-5);}.cls-12{clip-path:url(#clip-path-6);}.cls-13{clip-path:url(#clip-path-7);}.cls-15{stroke:#6c6c6c;}.cls-15,.cls-22,.cls-23{stroke-linejoin:round;}.cls-16,.cls-21,.cls-22,.cls-23,.cls-24,.cls-26,.cls-27{stroke:#000;}.cls-16{stroke-width:2.52px;}.cls-17{stroke:#f26d6d;}.cls-18{clip-path:url(#clip-path-8);}.cls-19{fill:#8e191b;}.cls-20{stroke:#5c0b0c;}.cls-20,.cls-22,.cls-23,.cls-26{stroke-width:0.63px;}.cls-21{stroke-width:1.01px;}.cls-24{stroke-width:0.92px;}.cls-25{fill:#be2025;}.cls-28{fill:#5c0b0c;}.cls-29{clip-path:url(#clip-path-9);}.cls-30{clip-path:url(#clip-path-10);}.cls-31{stroke:#ed1c24;}</style><clipPath id="clip-path"><rect class="cls-1" x="51.92" y="276.55" width="20.7" height="70.76"/></clipPath><clipPath id="clip-path-2"><path class="cls-1" d="M117.16,197.41S99.4,201.13,99.4,217.83s4.26,14.68,0,34.77-8.55,32.64,15,45.88S172,306.8,182,298,134.45,198.74,117.16,197.41Z"/></clipPath><clipPath id="clip-path-4"><polygon class="cls-1" points="378.22 261.95 378.22 273.37 368.34 279.07 358.45 273.37 358.45 261.95 368.34 256.25 378.22 261.95"/></clipPath><clipPath id="clip-path-5"><polygon class="cls-1" points="360.55 256.27 360.55 271.47 347.39 279.07 334.23 271.47 334.23 256.27 347.39 248.67 360.55 256.27"/></clipPath><clipPath id="clip-path-6"><polygon class="cls-1" points="340.29 78.25 340.29 93.45 327.13 101.05 313.97 93.45 313.97 78.25 327.13 70.65 340.29 78.25"/></clipPath><clipPath id="clip-path-7"><polygon class="cls-1" points="318.09 86.45 318.09 97.87 308.21 103.57 298.32 97.87 298.32 86.45 308.21 80.75 318.09 86.45"/></clipPath><clipPath id="clip-path-8"><path class="cls-1" d="M126.45,183.48s-17.76,3.72-17.76,20.42,4.25,14.69,0,34.77-8.56,32.64,15,45.88,57.58,8.32,67.64-.5S143.74,184.81,126.45,183.48Z"/></clipPath><clipPath id="clip-path-9"><polygon class="cls-1" points="50.62 117.12 50.62 128.53 40.73 134.24 30.85 128.53 30.85 117.12 40.73 111.42 50.62 117.12"/></clipPath><clipPath id="clip-path-10"><polygon class="cls-1" points="65.75 132.64 65.75 147.84 52.59 155.44 39.43 147.84 39.43 132.64 52.59 125.04 65.75 132.64"/></clipPath></defs><g id="Section_2_Visual" data-name="Section 2 Visual"><path id="Path_981" data-name="Path 981" class="cls-2" d="M4.35,207.16c4.28,22,14.06,42.48,28.26,57.63,30.5,32.56,77,45.57,115.35,67,34,19,68.55,38.25,110.52,32.77,34.87-4.55,74.34-22,94.18-53.47,22.88-36.27,14.72-74.82,5.26-111.43-9.75-37.76,10.33-71.49,11.74-109.38C371,53.92,351.15,20,317.84,6.7,283.31-7.06,245.07,1.62,212.46,21.41c-16.15,9.8-31.2,21.5-47.87,30.37-16.87,9-34.75,13.21-52.82,18.27-35.65,10-78.39,22.74-97.23,58.5C2,152.38-.79,180.83,4.35,207.16Z"/><g id="Group_4942" data-name="Group 4942"><ellipse id="Ellipse_57" data-name="Ellipse 57" class="cls-2" cx="72.43" cy="349.34" rx="72.43" ry="6.38"/><g id="Group_4926" data-name="Group 4926"><rect id="Rectangle_2021" data-name="Rectangle 2021" class="cls-3" x="26.97" y="277.05" width="22.21" height="69.75"/><rect id="Rectangle_2022" data-name="Rectangle 2022" class="cls-2" x="33.42" y="276.58" width="64.61" height="19.08"/><rect id="Rectangle_2023" data-name="Rectangle 2023" class="cls-4" x="43.84" y="283.71" width="34.74" height="3.31"/><circle id="Ellipse_58" data-name="Ellipse 58" class="cls-4" cx="87.56" cy="285.36" r="2.3"/><rect id="Rectangle_2024" data-name="Rectangle 2024" class="cls-2" x="33.42" y="294.22" width="64.61" height="17.57"/><circle id="Ellipse_59" data-name="Ellipse 59" class="cls-4" cx="87.56" cy="303" r="2.07"/><rect id="Rectangle_2025" data-name="Rectangle 2025" class="cls-2" x="33.42" y="311.79" width="64.61" height="17.57"/><circle id="Ellipse_60" data-name="Ellipse 60" class="cls-4" cx="87.56" cy="320.57" r="2.3"/><rect id="Rectangle_2026" data-name="Rectangle 2026" class="cls-2" x="33.42" y="329.36" width="64.61" height="17.57"/><circle id="Ellipse_61" data-name="Ellipse 61" class="cls-4" cx="87.56" cy="338.14" r="2.3"/><rect id="Rectangle_2027" data-name="Rectangle 2027" class="cls-4" x="43.62" y="301.33" width="35.18" height="3.35"/><rect id="Rectangle_2028" data-name="Rectangle 2028" class="cls-4" x="43.84" y="318.92" width="34.74" height="3.31"/><rect id="Rectangle_2029" data-name="Rectangle 2029" class="cls-4" x="43.84" y="336.49" width="34.74" height="3.31"/><g id="Group_4925" data-name="Group 4925"><line id="Line_51" data-name="Line 51" class="cls-1" x1="98.22" y1="294.39" x2="33.61" y2="294.39"/><line id="Line_52" data-name="Line 52" class="cls-1" x1="98.22" y1="311.81" x2="33.61" y2="311.81"/><line id="Line_53" data-name="Line 53" class="cls-1" x1="98.22" y1="329.22" x2="33.61" y2="329.22"/></g></g><g id="Group_4932" data-name="Group 4932"><g id="Group_4930" data-name="Group 4930"><g class="cls-5"><g id="Group_4929" data-name="Group 4929"><g id="Group_4928" data-name="Group 4928"><rect id="Rectangle_2030" data-name="Rectangle 2030" x="33.42" y="276.58" width="64.61" height="19.08"/><rect id="Rectangle_2031" data-name="Rectangle 2031" class="cls-3" x="43.84" y="283.71" width="34.74" height="3.31"/><circle id="Ellipse_62" data-name="Ellipse 62" class="cls-3" cx="87.56" cy="285.36" r="2.3"/><rect id="Rectangle_2032" data-name="Rectangle 2032" x="33.42" y="294.22" width="64.61" height="17.57"/><circle id="Ellipse_63" data-name="Ellipse 63" class="cls-3" cx="87.56" cy="303" r="2.07"/><rect id="Rectangle_2033" data-name="Rectangle 2033" x="33.42" y="311.79" width="64.61" height="17.57"/><circle id="Ellipse_64" data-name="Ellipse 64" class="cls-3" cx="87.56" cy="320.57" r="2.3"/><rect id="Rectangle_2034" data-name="Rectangle 2034" x="33.42" y="329.36" width="64.61" height="17.57"/><circle id="Ellipse_65" data-name="Ellipse 65" class="cls-3" cx="87.56" cy="338.14" r="2.3"/><rect id="Rectangle_2035" data-name="Rectangle 2035" class="cls-3" x="43.62" y="301.33" width="35.18" height="3.35"/><rect id="Rectangle_2036" data-name="Rectangle 2036" class="cls-3" x="43.84" y="318.92" width="34.74" height="3.31"/><rect id="Rectangle_2037" data-name="Rectangle 2037" class="cls-3" x="43.84" y="336.49" width="34.74" height="3.31"/><g id="Group_4927" data-name="Group 4927"><line id="Line_54" data-name="Line 54" class="cls-1" x1="98.22" y1="294.39" x2="33.61" y2="294.39"/><line id="Line_55" data-name="Line 55" class="cls-1" x1="98.22" y1="311.8" x2="33.61" y2="311.8"/><line id="Line_56" data-name="Line 56" class="cls-1" x1="98.22" y1="329.22" x2="33.61" y2="329.22"/></g></g></g></g></g><rect id="Rectangle_2039" data-name="Rectangle 2039" class="cls-3" x="60.09" y="229.02" width="22.21" height="122.8"/><g id="Group_4931" data-name="Group 4931"><rect id="Rectangle_2040" data-name="Rectangle 2040" class="cls-4" x="65.92" y="228.82" width="64.61" height="17.57"/><circle id="Ellipse_66" data-name="Ellipse 66" class="cls-2" cx="120.05" cy="237.61" r="2.07"/><rect id="Rectangle_2041" data-name="Rectangle 2041" class="cls-4" x="65.92" y="246.39" width="64.61" height="17.57"/><circle id="Ellipse_67" data-name="Ellipse 67" class="cls-2" cx="120.05" cy="255.18" r="2.3"/><rect id="Rectangle_2042" data-name="Rectangle 2042" class="cls-4" x="65.92" y="263.96" width="64.61" height="17.57"/><circle id="Ellipse_68" data-name="Ellipse 68" class="cls-2" cx="120.05" cy="272.75" r="2.3"/><rect id="Rectangle_2043" data-name="Rectangle 2043" class="cls-4" x="65.92" y="281.53" width="64.61" height="17.57"/><rect id="Rectangle_2044" data-name="Rectangle 2044" class="cls-2" x="76.12" y="235.93" width="35.18" height="3.35"/><rect id="Rectangle_2045" data-name="Rectangle 2045" class="cls-2" x="76.34" y="253.52" width="34.74" height="3.31"/><rect id="Rectangle_2046" data-name="Rectangle 2046" class="cls-2" x="76.34" y="271.09" width="34.74" height="3.31"/><rect id="Rectangle_2047" data-name="Rectangle 2047" class="cls-2" x="76.34" y="288.66" width="34.74" height="3.31"/><circle id="Ellipse_69" data-name="Ellipse 69" class="cls-2" cx="120.05" cy="290.32" r="2.3"/><rect id="Rectangle_2048" data-name="Rectangle 2048" class="cls-4" x="65.92" y="297.67" width="64.61" height="19.07"/><circle id="Ellipse_70" data-name="Ellipse 70" class="cls-2" cx="120.05" cy="307.96" r="2.07"/><rect id="Rectangle_2049" data-name="Rectangle 2049" class="cls-4" x="65.92" y="316.74" width="64.61" height="17.57"/><circle id="Ellipse_71" data-name="Ellipse 71" class="cls-2" cx="120.05" cy="325.53" r="2.3"/><rect id="Rectangle_2050" data-name="Rectangle 2050" class="cls-4" x="65.92" y="334.31" width="64.61" height="17.57"/><circle id="Ellipse_72" data-name="Ellipse 72" class="cls-2" cx="120.05" cy="343.1" r="2.3"/><rect id="Rectangle_2051" data-name="Rectangle 2051" class="cls-2" x="76.12" y="306.28" width="35.18" height="3.35"/><rect id="Rectangle_2052" data-name="Rectangle 2052" class="cls-2" x="76.34" y="323.87" width="34.74" height="3.31"/><rect id="Rectangle_2053" data-name="Rectangle 2053" class="cls-2" x="76.34" y="341.44" width="34.74" height="3.31"/></g></g><g id="Group_4933" data-name="Group 4933"><line id="Line_57" data-name="Line 57" class="cls-1" x1="65.62" y1="246.19" x2="130.73" y2="246.19"/><line id="Line_58" data-name="Line 58" class="cls-1" x1="65.62" y1="263.85" x2="130.73" y2="263.85"/><line id="Line_59" data-name="Line 59" class="cls-1" x1="65.62" y1="281.52" x2="130.73" y2="281.52"/><line id="Line_60" data-name="Line 60" class="cls-1" x1="65.62" y1="299.19" x2="130.73" y2="299.19"/><line id="Line_61" data-name="Line 61" class="cls-1" x1="65.62" y1="316.85" x2="130.73" y2="316.85"/><line id="Line_62" data-name="Line 62" class="cls-1" x1="65.62" y1="334.52" x2="130.73" y2="334.52"/></g><g id="Group_4941" data-name="Group 4941"><g class="cls-6"><g id="Group_4940" data-name="Group 4940"><g id="Group_4939" data-name="Group 4939"><g id="Group_4937" data-name="Group 4937"><g class="cls-5"><g id="Group_4936" data-name="Group 4936"><g id="Group_4935" data-name="Group 4935"><rect id="Rectangle_2054" data-name="Rectangle 2054" x="33.42" y="276.58" width="64.61" height="19.08"/><rect id="Rectangle_2055" data-name="Rectangle 2055" class="cls-3" x="43.84" y="283.71" width="34.74" height="3.31"/><circle id="Ellipse_73" data-name="Ellipse 73" class="cls-3" cx="87.56" cy="285.36" r="2.3"/><rect id="Rectangle_2056" data-name="Rectangle 2056" x="33.42" y="294.22" width="64.61" height="17.57"/><circle id="Ellipse_74" data-name="Ellipse 74" class="cls-3" cx="87.56" cy="303" r="2.07"/><rect id="Rectangle_2057" data-name="Rectangle 2057" x="33.42" y="311.79" width="64.61" height="17.57"/><circle id="Ellipse_75" data-name="Ellipse 75" class="cls-3" cx="87.56" cy="320.57" r="2.3"/><rect id="Rectangle_2058" data-name="Rectangle 2058" x="33.42" y="329.36" width="64.61" height="17.57"/><circle id="Ellipse_76" data-name="Ellipse 76" class="cls-3" cx="87.56" cy="338.14" r="2.3"/><rect id="Rectangle_2059" data-name="Rectangle 2059" class="cls-3" x="43.62" y="301.33" width="35.18" height="3.35"/><rect id="Rectangle_2060" data-name="Rectangle 2060" class="cls-3" x="43.84" y="318.92" width="34.74" height="3.31"/><rect id="Rectangle_2061" data-name="Rectangle 2061" class="cls-3" x="43.84" y="336.49" width="34.74" height="3.31"/><g id="Group_4934" data-name="Group 4934"><line id="Line_63" data-name="Line 63" class="cls-1" x1="98.22" y1="294.39" x2="33.61" y2="294.39"/><line id="Line_64" data-name="Line 64" class="cls-1" x1="98.22" y1="311.8" x2="33.61" y2="311.8"/><line id="Line_65" data-name="Line 65" class="cls-1" x1="98.22" y1="329.22" x2="33.61" y2="329.22"/></g></g></g></g></g><rect id="Rectangle_2063" data-name="Rectangle 2063" class="cls-3" x="60.09" y="229.02" width="22.21" height="122.8"/><g id="Group_4938" data-name="Group 4938"><rect id="Rectangle_2064" data-name="Rectangle 2064" class="cls-2" x="65.92" y="228.82" width="64.61" height="17.57"/><circle id="Ellipse_77" data-name="Ellipse 77" class="cls-3" cx="120.05" cy="237.61" r="2.07"/><rect id="Rectangle_2065" data-name="Rectangle 2065" class="cls-2" x="65.92" y="246.39" width="64.61" height="17.57"/><circle id="Ellipse_78" data-name="Ellipse 78" class="cls-3" cx="120.05" cy="255.18" r="2.3"/><rect id="Rectangle_2066" data-name="Rectangle 2066" class="cls-2" x="65.92" y="263.96" width="64.61" height="17.57"/><circle id="Ellipse_79" data-name="Ellipse 79" class="cls-3" cx="120.05" cy="272.75" r="2.3"/><rect id="Rectangle_2067" data-name="Rectangle 2067" class="cls-2" x="65.92" y="281.53" width="64.61" height="17.57"/><rect id="Rectangle_2068" data-name="Rectangle 2068" class="cls-3" x="76.12" y="235.93" width="35.18" height="3.35"/><rect id="Rectangle_2069" data-name="Rectangle 2069" class="cls-3" x="76.34" y="253.52" width="34.74" height="3.31"/><rect id="Rectangle_2070" data-name="Rectangle 2070" class="cls-3" x="76.34" y="271.09" width="34.74" height="3.31"/><rect id="Rectangle_2071" data-name="Rectangle 2071" class="cls-3" x="76.34" y="288.66" width="34.74" height="3.31"/><circle id="Ellipse_80" data-name="Ellipse 80" class="cls-3" cx="120.05" cy="290.32" r="2.3"/><rect id="Rectangle_2072" data-name="Rectangle 2072" class="cls-2" x="65.92" y="297.67" width="64.61" height="19.07"/><circle id="Ellipse_81" data-name="Ellipse 81" class="cls-3" cx="120.05" cy="307.96" r="2.07"/><rect id="Rectangle_2073" data-name="Rectangle 2073" class="cls-2" x="65.92" y="316.74" width="64.61" height="17.57"/><circle id="Ellipse_82" data-name="Ellipse 82" class="cls-3" cx="120.05" cy="325.53" r="2.3"/><rect id="Rectangle_2074" data-name="Rectangle 2074" class="cls-2" x="65.92" y="334.31" width="64.61" height="17.57"/><circle id="Ellipse_83" data-name="Ellipse 83" class="cls-3" cx="120.05" cy="343.1" r="2.3"/><rect id="Rectangle_2075" data-name="Rectangle 2075" class="cls-3" x="76.12" y="306.28" width="35.18" height="3.35"/><rect id="Rectangle_2076" data-name="Rectangle 2076" class="cls-3" x="76.34" y="323.87" width="34.74" height="3.31"/><rect id="Rectangle_2077" data-name="Rectangle 2077" class="cls-3" x="76.34" y="341.44" width="34.74" height="3.31"/></g></g></g></g></g></g><g id="Group_4943" data-name="Group 4943"><path id="Path_983" data-name="Path 983" class="cls-4" d="M402.54,182.75a39.78,39.78,0,0,0-79.21,5.3h0v.16c-.54,0-1.09-.07-1.64-.07A19.85,19.85,0,0,0,301.84,208h0a19.85,19.85,0,0,0,19.85,19.85h0l.84,0v0H391.7q.75.06,1.53.06a23.54,23.54,0,0,0,23.53-23.53h0A23.54,23.54,0,0,0,402.54,182.75Z"/><path id="Path_984" data-name="Path 984" class="cls-2" d="M371.47,185.81A8.57,8.57,0,1,0,359,193.44v8.49a3.88,3.88,0,0,0,7.76,0v-8.49A8.54,8.54,0,0,0,371.47,185.81Z"/></g><path id="Path_985" data-name="Path 985" class="cls-7" d="M251.46,138.22a26.9,26.9,0,0,0-26.9-26.9l-1,0A43.11,43.11,0,0,0,183,75.17a70.55,70.55,0,0,0-138,12.59h-.35A38.68,38.68,0,0,0,5.89,126.43h0a38.68,38.68,0,0,0,38.47,38.68H225A26.9,26.9,0,0,0,251.46,138.22Z"/><g id="Group_4944" data-name="Group 4944"><path id="Path_986" data-name="Path 986" class="cls-1" d="M272.24,71.85a136.32,136.32,0,0,1,21.18,14.73"/><path id="Path_987" data-name="Path 987" class="cls-8" d="M352.11,281.74a173.39,173.39,0,0,1-24.2,30.58"/><path id="Path_988" data-name="Path 988" class="cls-8" d="M205.44,18A172,172,0,0,1,320.92,62.35"/><path id="Path_989" data-name="Path 989" class="cls-1" d="M363.77,283.93a183.77,183.77,0,0,1-17.31,24.52"/><path id="Path_990" data-name="Path 990" class="cls-8" d="M329,273.82q-3.33,4.92-7,9.55"/><path id="Path_991" data-name="Path 991" class="cls-8" d="M241.19,46.08a148.43,148.43,0,0,1,58.93,29.65"/></g><g id="Group_4966" data-name="Group 4966"><g id="Group_4955" data-name="Group 4955"><g id="Group_4949" data-name="Group 4949"><g id="Group_4948" data-name="Group 4948"><g class="cls-9"><g id="Group_4947" data-name="Group 4947"><g id="Group_4945" data-name="Group 4945"><path id="Path_992" data-name="Path 992" class="cls-3" d="M378.18,261.93l-9.84-5.68-9.85,5.68,9.86,5.69Z"/><path id="Path_993" data-name="Path 993" class="cls-10" d="M358.45,262v11.36l9.85,5.69V267.69Z"/><path id="Path_994" data-name="Path 994" class="cls-10" d="M368.39,279l9.83-5.68V262l-9.83,5.69Z"/><path id="Path_995" data-name="Path 995" class="cls-4" d="M368.31,267.64h0Z"/><path id="Path_996" data-name="Path 996" class="cls-4" d="M368.31,267.65h0Z"/></g><g id="Group_4946" data-name="Group 4946"><line id="Line_66" data-name="Line 66" class="cls-1" x1="358.45" y1="261.95" x2="368.34" y2="267.66"/><line id="Line_67" data-name="Line 67" class="cls-1" x1="368.34" y1="267.66" x2="368.34" y2="279.85"/><line id="Line_68" data-name="Line 68" class="cls-1" x1="378.22" y1="261.95" x2="368.34" y2="267.66"/></g></g></g></g></g><g id="Group_4954" data-name="Group 4954"><g id="Group_4953" data-name="Group 4953"><g class="cls-11"><g id="Group_4952" data-name="Group 4952"><g id="Group_4950" data-name="Group 4950"><path id="Path_998" data-name="Path 998" class="cls-3" d="M360.49,256.24l-13.1-7.57-13.11,7.57,13.12,7.58Z"/><path id="Path_999" data-name="Path 999" class="cls-10" d="M334.22,256.34v15.13l13.12,7.58V263.91Z"/><path id="Path_1000" data-name="Path 1000" class="cls-10" d="M347.45,279l13.1-7.56V256.34l-13.1,7.57Z"/><path id="Path_1001" data-name="Path 1001" class="cls-4" d="M347.36,263.84h0Z"/><path id="Path_1002" data-name="Path 1002" class="cls-4" d="M347.34,263.86h0Z"/></g><g id="Group_4951" data-name="Group 4951"><line id="Line_69" data-name="Line 69" class="cls-1" x1="334.22" y1="256.27" x2="347.4" y2="263.88"/><line id="Line_70" data-name="Line 70" class="cls-1" x1="347.4" y1="263.88" x2="347.4" y2="280.11"/><line id="Line_71" data-name="Line 71" class="cls-1" x1="360.55" y1="256.27" x2="347.4" y2="263.88"/></g></g></g></g></g></g><g id="Group_4960" data-name="Group 4960"><g id="Group_4959" data-name="Group 4959"><g class="cls-12"><g id="Group_4958" data-name="Group 4958"><g id="Group_4956" data-name="Group 4956"><path id="Path_1004" data-name="Path 1004" class="cls-3" d="M340.24,78.22l-13.11-7.57L314,78.22l13.11,7.57Z"/><path id="Path_1005" data-name="Path 1005" class="cls-3" d="M314,78.32V93.45L327.09,101V85.89Z"/><path id="Path_1006" data-name="Path 1006" class="cls-10" d="M327.2,101l13.09-7.56V78.32L327.2,85.89Z"/><path id="Path_1007" data-name="Path 1007" class="cls-4" d="M327.1,85.82h0Z"/><path id="Path_1008" data-name="Path 1008" class="cls-4" d="M327.09,85.84h0Z"/></g><g id="Group_4957" data-name="Group 4957"><line id="Line_72" data-name="Line 72" class="cls-1" x1="313.97" y1="78.25" x2="327.14" y2="85.86"/><line id="Line_73" data-name="Line 73" class="cls-1" x1="327.14" y1="85.86" x2="327.14" y2="102.09"/><line id="Line_74" data-name="Line 74" class="cls-1" x1="340.29" y1="78.25" x2="327.14" y2="85.86"/></g></g></g></g></g><g id="Group_4965" data-name="Group 4965"><g id="Group_4964" data-name="Group 4964"><g class="cls-13"><g id="Group_4963" data-name="Group 4963"><g id="Group_4961" data-name="Group 4961"><path id="Path_1010" data-name="Path 1010" class="cls-3" d="M318.05,86.43l-9.84-5.68-9.84,5.68,9.85,5.69Z"/><path id="Path_1011" data-name="Path 1011" class="cls-3" d="M298.32,86.5V97.87l9.85,5.68V92.19Z"/><path id="Path_1012" data-name="Path 1012" class="cls-10" d="M308.26,103.54l9.83-5.67V86.5l-9.83,5.69Z"/><path id="Path_1013" data-name="Path 1013" class="cls-4" d="M308.18,92.14h0Z"/><path id="Path_1014" data-name="Path 1014" class="cls-4" d="M308.18,92.15h0Z"/></g><g id="Group_4962" data-name="Group 4962"><line id="Line_75" data-name="Line 75" class="cls-1" x1="298.32" y1="86.45" x2="308.21" y2="92.17"/><line id="Line_76" data-name="Line 76" class="cls-1" x1="308.21" y1="92.17" x2="308.21" y2="104.35"/><line id="Line_77" data-name="Line 77" class="cls-1" x1="318.09" y1="86.45" x2="308.21" y2="92.17"/></g></g></g></g></g></g><path id="Path_1016" data-name="Path 1016" class="cls-14" d="M323.33,188.21"/><path id="Path_1017" data-name="Path 1017" class="cls-15" d="M344.24,227.84"/><g id="Group_4970" data-name="Group 4970"><path id="Path_1018" data-name="Path 1018" d="M168.08,297.17s-3.53,1.51-10.6,1.51a40.69,40.69,0,0,1-11.61-1.51V284h22.21Z"/><path id="Path_1019" data-name="Path 1019" class="cls-2" d="M276.16,383c0-5-42.36-9.08-106.06-9.08S54.75,377.93,54.75,383c0,3.73,28.62,6.93,69.51,8.33a38.82,38.82,0,0,1,10,1.6c7.24,2.19,23.46,3.72,42.3,3.72,19.33,0,35.89-1.61,42.84-3.89a39.49,39.49,0,0,1,10.39-2C263.15,389.13,276.16,386.24,276.16,383Z"/><g id="Group_4967" data-name="Group 4967"><path id="Path_1020" data-name="Path 1020" class="cls-16" d="M157.46,288.23v61s-1.08,20.18,34.81,29.35"/><path id="Path_1021" data-name="Path 1021" class="cls-16" d="M124.56,378.55s32.9-9.36,32.9-29.35"/></g><line id="Line_78" data-name="Line 78" class="cls-17" x1="164.31" y1="236.15" x2="295.03" y2="236.15"/><path id="Path_1022" data-name="Path 1022" class="cls-3" d="M126.45,183.48s-17.76,3.72-17.76,20.42,4.25,14.69,0,34.77-8.56,32.64,15,45.88,57.58,8.32,67.64-.5S143.74,184.81,126.45,183.48Z"/><g id="Group_4969" data-name="Group 4969"><g class="cls-18"><g id="Group_4968" data-name="Group 4968"><path id="Path_1023" data-name="Path 1023" d="M133.26,182.08c-7.07-1-16.66,7.57-15.65,18.68s5,20.19,1,37.85c-3.59,15.69-3.44,34.09,10.39,38s34.63-1.51,35.59,16.09c0,0,13.58,10.53,24.18,3.47s13.12-27.26.5-35.84S133.26,182.08,133.26,182.08Z"/></g></g></g><path id="Path_1025" data-name="Path 1025" class="cls-10" d="M151.26,170.13s-.49,1.75-15.26,6.25c-6.39,2-11.81,5.55-12.25,16.63s-.14,36.74,17.36,45.05c12.58,6,25.75.06,38.4-3.66l11.21,11.26s-2.16-13.42-1.68-13.5a24.18,24.18,0,0,1,5.44-.36l.2-12.28-6.67.31-.43-5.21,8.79,5.66s14.14-.73,15.46-.73a3.84,3.84,0,0,1,2.91.87,4,4,0,0,1,4.52.73s1.9-1,4.67,1.61l6.42,5.39,2.91-6.85-16.48-7.15s-14.72-14-19.1-19.23S182.39,179.15,176,177.11,151.26,170.13,151.26,170.13Z"/><path id="Path_1026" data-name="Path 1026" class="cls-19" d="M184.48,135.61s1.94,7.34,1.6,11.3c-.14,1.61-2.53,4-2.15,7,.1.82,2.09,2.31,1.73,3.84-.27,1.19-1.8.59-2.36,1a7.44,7.44,0,0,0,0,3.32c0,.36-.13.42-.41.9l-.51.89.36.82a.52.52,0,0,1,0,.44c-.91,1.7-.74,4.64-1,5.63-.79,2.92-1.92,3.09-7.37,2.69a40.33,40.33,0,0,0-1.8,6.29l5,4.16s-7.41,10.5-9.22,14.68c-2.18-2.37-10.76-13.47-12.78-14s-3.4-9.58-3.4-9.58l-.8-4.9s5.86-5.1,2-13.3-4.68-17.59.55-24.24C159.24,125.73,176.39,118.76,184.48,135.61Z"/><path id="Path_1027" data-name="Path 1027" d="M159.93,148.54a12.87,12.87,0,0,1,1.26-3.29c.59-.68.34-1.78.42-2.19.34-1.69,2-1.24,3.32-2.36s.67-3.49,2.47-3.82a6.38,6.38,0,0,0,3.48-1.69c.62-.62,1.24-.84,2.7-.39s2.81-2,4.44-.56,3.43.78,4.55,1.06,1.88,2.6,2.85,2,4.81-4.57,2.94-6-.54-2.42-1.94-3.77-1.43-3.14-3-3.81-2.53.17-3.54,0-1.47-2.08-3-2.36-2.36.79-3.82.67-1.18-1.23-2.87-1.29-1.18,1.13-3,1.13-2.19-.57-3.65.28-1.91,1.29-2.64,1.4-1.86-.28-3,.33-1.07,2.47-2.36,3-3.09.9-4.05,2,0,2.7-1.32,3.6a5.23,5.23,0,0,0-2.61,3.54c-.56,2,.34,2.53,0,4.43s-.68,2.48.39,4.78a70.81,70.81,0,0,1,2.53,7c.79,2.3,3.84,6.73,3.89,8.65l1.45-4.82s-4.78-4-2.7-9.33C154.93,142.1,159.2,145.25,159.93,148.54Z"/><path id="Path_1028" data-name="Path 1028" class="cls-20" d="M178.78,158.11a2.46,2.46,0,0,1-1-.42"/><path id="Path_1029" data-name="Path 1029" class="cls-21" d="M179.81,144.65c.77.47-5.72-2.45-10.67,1"/><path id="Path_1030" data-name="Path 1030" class="cls-22" d="M168.76,147s0,5.24,1.61,7.63a22.92,22.92,0,0,0,8.73.45,17.46,17.46,0,0,0,1.56-8.12c-3.59-1.4-11.9-.34-11.9-.34l-9.33,0"/><path id="Path_1031" data-name="Path 1031" class="cls-23" d="M183.77,147.38a11.92,11.92,0,0,1,5.44.34,14,14,0,0,1-1.69,7,4.89,4.89,0,0,1-2.92.38"/><path id="Path_1032" data-name="Path 1032" class="cls-24" d="M184.78,146.06a2.73,2.73,0,0,1,2.1,0"/><path id="Path_1033" data-name="Path 1033" class="cls-10" d="M151.26,169.62a22.08,22.08,0,0,0,3.2,9.94c4,6.56,14.13,19.18,14.13,19.18l-.51.5s-6.19-8.84-10.09-11.1a21,21,0,0,0-12.1-3l3-14.17Z"/><path id="Path_1034" data-name="Path 1034" class="cls-2" d="M125.87,217.22s-.33,23.56-1.31,29.76-3.27,14.89-3.27,14.89l20.93-23.82S130.93,235.49,125.87,217.22Z"/><path id="Path_1035" data-name="Path 1035" class="cls-19" d="M194.48,220.12s15.65-.77,17.35-.58a8.59,8.59,0,0,1,2.92.88,5,5,0,0,1,4.52.73,5.79,5.79,0,0,1,4.66,1.6l6.42,5.4-1.26,2.63-4.67-2.56,2.22,3.89h-12s-8.79-3.44-12.79-3.67a26.42,26.42,0,0,0-7.36.67Z"/><path id="Path_1036" data-name="Path 1036" class="cls-20" d="M205,222.8A7.24,7.24,0,0,1,211,225c2.78,2.77,8.17,7.15,8.17,7.15"/><path id="Path_1037" data-name="Path 1037" class="cls-20" d="M208.66,220.33a7.73,7.73,0,0,1,5.8,3.27c2.58,3.35,6.94,8.51,6.94,8.51"/><path id="Path_1038" data-name="Path 1038" class="cls-20" d="M204.68,219.69l4.41-.14c.52,0,1,0,1.54-.1a6.39,6.39,0,0,1,5.47,2.33c2.77,3.06,8.22,9,8.22,9s-1.94,2.54-4.46-.52"/><path id="Path_1039" data-name="Path 1039" class="cls-20" d="M214.75,220.42s4-.93,5.74,2.32,6.15,9.37,6.15,9.37"/><path id="Path_1040" data-name="Path 1040" class="cls-20" d="M219.26,221.14a3.48,3.48,0,0,1,3.72.74c1.87,1.64,7.37,6.26,7.37,6.26"/><path id="Path_1041" data-name="Path 1041" class="cls-25" d="M220.74,280l-5.24-5.84-10.67,12.58a89.26,89.26,0,0,1,7.1,6.79C216.35,290.49,218.39,284.77,220.74,280Z"/><path id="Path_1042" data-name="Path 1042" class="cls-3" d="M241.18,296.89a29.55,29.55,0,0,1-12.37-7.9l-8.07-9c-2.35,4.78-5.53,9.36-10,12.39,2.36,2.48,2.56,3.18,2.56,3.18s.17,11.13,3.26,13.36,9.28,3.61,13.74,3.26,12.55,4.13,17,4.64,16.49,0,17.18-7.56S249.25,299.64,241.18,296.89Z"/><path id="Path_1043" data-name="Path 1043" class="cls-10" d="M209.64,291.23s7.25-4.2,11.05-11.29l5.95,6.63s-2.16-2.1-2.32,3.33-3.07,6.63-5.13,6.63-3.45-1.75-5.84-1A36.29,36.29,0,0,0,209.64,291.23Z"/><path id="Path_1044" data-name="Path 1044" class="cls-10" d="M214.45,304.67s6,3.85,12.9,3.27,9.25.94,11.56,2.28,16,7.58,25.63-1c0,0-.79,7.33-12.2,7.7s-14-4.48-20.38-4.73-10.78-.47-15.35-3.32C216.62,308.92,215.08,308,214.45,304.67Z"/><line id="Line_79" data-name="Line 79" class="cls-8" x1="236.44" y1="294.83" x2="233.94" y2="299.22"/><line id="Line_80" data-name="Line 80" class="cls-8" x1="241.99" y1="297.03" x2="239.49" y2="301.42"/><path id="Path_1045" data-name="Path 1045" class="cls-25" d="M195.94,354.11c.82-4.37,1.81-8.37,1.81-8.37l-18.87-3.27a41.5,41.5,0,0,0-.84,10.31C182.56,360.26,182.94,358.74,195.94,354.11Z"/><path id="Path_1046" data-name="Path 1046" class="cls-3" d="M211.59,376.91c-9.47-2-16-8.71-16.68-12.79a17.86,17.86,0,0,1,.12-4.26c.2-1.78-17.05-1.58-17.37.88a34.41,34.41,0,0,1-2.75,10.05c-2.31,5-3.4,7.62-2,11.7a23.33,23.33,0,0,0,12.79,3c7.48-.41,7.89,2.18,17,3.67s15.1,1.23,16.46-1.9S221.06,379,211.59,376.91Z"/><path id="Path_1047" data-name="Path 1047" class="cls-10" d="M178,352.47s9.49,4,18.05,1.29a69.32,69.32,0,0,0-1.17,10.36s-3-2.4-5.15,2.45c-.85,1.94-2.93,3.17-7.41.17-2.13-1.42-4.76-.61-5.75-.63C176.6,366.11,178,356,178,352.47Z"/><path id="Path_1048" data-name="Path 1048" class="cls-10" d="M172.42,377.44s.93,4.11,11.37,3.86,12.05,2.48,17.39,4.1,15.95,3.27,18.66-.6c0,0,1.55,9.25-21.22,3.5,0,0-6.62-3.1-13-2.81a24.16,24.16,0,0,1-12.79-3S172,379.1,172.42,377.44Z"/><line id="Line_81" data-name="Line 81" class="cls-8" x1="200.88" y1="371.82" x2="197.25" y2="375.33"/><line id="Line_82" data-name="Line 82" class="cls-8" x1="206.39" y1="374.74" x2="202.75" y2="378.25"/><path id="Path_1049" data-name="Path 1049" d="M182.91,274.15s4.22,5.14-.46,25.4-11,33.08-10.86,44.15c0,0,3.45,3.1,12.12,5.12,11.44,2.67,17.16-.38,17.28-.09,0,0,1.64-17.7,4.68-28.73s4.41-28.48,4.41-28.48-3.48-4.89-5.25-4.79c-.71,0-5.66,6.47-5.66,6.47Z"/><path id="Path_1050" data-name="Path 1050" class="cls-8" d="M142.39,222.46A377.91,377.91,0,0,0,188,220.33"/><path id="Path_1051" data-name="Path 1051" class="cls-8" d="M142.51,197.82c-.12-.09,3.51,24.54,3.51,24.54"/><path id="Path_1052" data-name="Path 1052" d="M185.85,195.8s3,10.9,7.07,15.92c6.27,7.79,11.91,7.95,11.91,7.95l-8.45.38-1.9.07v-1.07l-6.9-4.44S185.68,201.38,185.85,195.8Z"/><path id="Path_1053" data-name="Path 1053" d="M210.08,279.94s-3.44,10.58,11.25,16c-1.85,12.95,4.65,16,4.65,16s-6.59-.64-9.37-3c-3.63-3.05-3.26-13.37-3.26-13.37s-4.88-6.5-8.52-8.82Z"/><path id="Path_1054" data-name="Path 1054" d="M192.27,231.76l2.2,3.89h77.87l18-42.44H244l-15.74,38.9Z"/><path id="Path_1055" data-name="Path 1055" class="cls-20" d="M159.2,157.44s-3.95-.74-6.23-5.95,3.59-10.68,7-3"/><path id="Path_1056" data-name="Path 1056" class="cls-26" d="M170.93,149.33a17.25,17.25,0,0,1,7.43-.15"/><path id="Path_1057" data-name="Path 1057" class="cls-27" d="M183.48,149.17a9.9,9.9,0,0,1,2.36.29"/><path id="Path_1058" data-name="Path 1058" d="M177,149.43a1.31,1.31,0,0,1-1.31,1.31h0a1.31,1.31,0,0,1-1.31-1.31h0a1.3,1.3,0,0,1,.36-.9,2.42,2.42,0,0,1,2,.18A1.29,1.29,0,0,1,177,149.43Z"/><path id="Path_1059" data-name="Path 1059" d="M183.48,150.44a1.3,1.3,0,0,0,.71,1.16,18,18,0,0,1,.84-2.26C183.72,149.09,183.48,149.83,183.48,150.44Z"/><circle id="Ellipse_84" data-name="Ellipse 84" cx="184.34" cy="150.45" r="1.19"/><path id="Path_1060" data-name="Path 1060" class="cls-28" d="M160.58,167s6.55,5.14,13.73,6.42a18.65,18.65,0,0,0-1.12,3.66c-.14.91-1.07,7.5-1.07,7.5s.43-5.79-3-9.1C164.15,170.65,160.58,167,160.58,167Z"/><path id="Path_1061" data-name="Path 1061" d="M152.88,275.55s24.05-2.62,31.56,3.79l-.47-2.61-15.34-16.61Z"/><path id="Path_1062" data-name="Path 1062" d="M120.85,259.27a6.88,6.88,0,0,1,2-3.52c3.15-3,11.31-10.83,21.62-20.74,13.3-12.79,19-17,24.19-11.89s31.15,34,50.56,46.72c0,0,.15,3.75-5.65,11a59,59,0,0,1-14.37,12.31l-30.54-33.07-15.75,15.43s-13.16.59-18.16,1.53C128.12,278.33,118,272.76,120.85,259.27Z"/><path id="Path_1063" data-name="Path 1063" class="cls-26" d="M184.09,147.44a11.61,11.61,0,0,0-.38,6.1"/><path id="Path_1064" data-name="Path 1064" class="cls-20" d="M182.8,148.05s-.89,2.31,1.32,6.15c1.5,2.62,2.41,4.26-.2,4.53a8.06,8.06,0,0,1-4.16-.33"/><path id="Path_1065" data-name="Path 1065" class="cls-20" d="M182.33,163.87a11.42,11.42,0,0,1-5.78-1.05"/><path id="Path_1066" data-name="Path 1066" class="cls-10" d="M173.9,174.52s3,3.43,4.46,5.28,4.86,5.31,4.86,5.31-4.45.33-9.16,4.81a18.65,18.65,0,0,0-5.47,9.32h-.51s3.78-14.56,4.23-19A18.47,18.47,0,0,1,173.9,174.52Z"/><path id="Path_1067" data-name="Path 1067" d="M125.87,217.22s1.85,10,8,15.29,7.74,5.55,7.74,5.55l-8.13,7.39S127,243.59,125,224.93C124.71,222.62,126,220.06,125.87,217.22Z"/><path id="Path_1068" data-name="Path 1068" class="cls-23" d="M180.66,148.53s1.09-1.07,3.11,0"/><path id="Path_1069" data-name="Path 1069" class="cls-1" d="M162.07,200.76H149.46l1.29,9.71a6.25,6.25,0,0,0,6.2,5.43h0a6.25,6.25,0,0,0,6.25-6.25,5.69,5.69,0,0,0,0-.83Z"/></g><g id="Group_4975" data-name="Group 4975"><g id="Group_4974" data-name="Group 4974"><g class="cls-29"><g id="Group_4973" data-name="Group 4973"><g id="Group_4971" data-name="Group 4971"><path id="Path_1070" data-name="Path 1070" class="cls-3" d="M50.57,117.1l-9.84-5.68-9.84,5.68,9.85,5.69Z"/><path id="Path_1071" data-name="Path 1071" class="cls-3" d="M30.85,117.17v11.36l9.85,5.69V122.86Z"/><path id="Path_1072" data-name="Path 1072" class="cls-10" d="M40.78,134.21l9.84-5.68V117.17l-9.84,5.69Z"/><path id="Path_1073" data-name="Path 1073" class="cls-4" d="M40.71,122.8h0Z"/><path id="Path_1074" data-name="Path 1074" class="cls-4" d="M40.7,122.82h0Z"/></g><g id="Group_4972" data-name="Group 4972"><line id="Line_83" data-name="Line 83" class="cls-1" x1="30.85" y1="117.12" x2="40.74" y2="122.83"/><line id="Line_84" data-name="Line 84" class="cls-1" x1="40.74" y1="122.83" x2="40.74" y2="135.02"/><line id="Line_85" data-name="Line 85" class="cls-1" x1="50.61" y1="117.12" x2="40.74" y2="122.83"/></g></g></g></g></g><path id="Path_1076" data-name="Path 1076" class="cls-8" d="M33.87,209.92a174.59,174.59,0,0,1,3.65-59.49"/><path id="Path_1077" data-name="Path 1077" class="cls-1" d="M22.18,177.27a183.4,183.4,0,0,1,8.35-43"/><path id="Path_1078" data-name="Path 1078" class="cls-8" d="M57.29,175.57a149.67,149.67,0,0,1,3.41-20"/><g id="Group_4980" data-name="Group 4980"><g id="Group_4979" data-name="Group 4979"><g class="cls-30"><g id="Group_4978" data-name="Group 4978"><g id="Group_4976" data-name="Group 4976"><path id="Path_1079" data-name="Path 1079" class="cls-3" d="M65.7,132.61,52.59,125l-13.1,7.57,13.11,7.57Z"/><path id="Path_1080" data-name="Path 1080" class="cls-3" d="M39.43,132.71v15.13l13.12,7.57V140.28Z"/><path id="Path_1081" data-name="Path 1081" class="cls-10" d="M52.66,155.4l13.09-7.56V132.7l-13.09,7.58Z"/><path id="Path_1082" data-name="Path 1082" class="cls-4" d="M52.56,140.21h0Z"/><path id="Path_1083" data-name="Path 1083" class="cls-4" d="M52.55,140.23h0Z"/></g><g id="Group_4977" data-name="Group 4977"><line id="Line_86" data-name="Line 86" class="cls-1" x1="39.43" y1="132.64" x2="52.6" y2="140.25"/><line id="Line_87" data-name="Line 87" class="cls-1" x1="52.6" y1="140.25" x2="52.6" y2="156.48"/><line id="Line_88" data-name="Line 88" class="cls-1" x1="65.75" y1="132.64" x2="52.6" y2="140.25"/></g></g></g></g></g><path id="Path_1085" data-name="Path 1085" class="cls-31" d="M182.22,31.89a162.13,162.13,0,0,1,38.38-1,160.43,160.43,0,0,1,92,39.79"/><path id="Path_1086" data-name="Path 1086" class="cls-31" d="M48.17,224.93a161.4,161.4,0,0,1-2.82-48.38,163.24,163.24,0,0,1,2.37-16.49"/><path id="Path_1087" data-name="Path 1087" class="cls-31" d="M339.25,281.74a161.52,161.52,0,0,1-109.35,69"/></g></svg>